<svg xmlns="http://www.w3.org/2000/svg" version="1.1" xmlns:xlink="http://www.w3.org/1999/xlink" xmlns:svgjs="http://svgjs.dev/svgjs" width="2000" height="631" viewBox="0 0 2000 631"><g transform="matrix(1,0,0,1,-1.2121212121212466,0.80209415669691)"><svg viewBox="0 0 396 125" data-background-color="#ffffff" preserveAspectRatio="xMidYMid meet" height="631" width="2000" xmlns="http://www.w3.org/2000/svg" xmlns:xlink="http://www.w3.org/1999/xlink"><g id="tight-bounds" transform="matrix(1,0,0,1,0.2400000000000091,-0.15889345417926393)"><svg viewBox="0 0 395.52 125.31778690835851" height="125.31778690835851" width="395.52"><g><svg viewBox="0 0 395.52 125.31778690835851" height="125.31778690835851" width="395.52"><g><svg viewBox="0 0 395.52 125.31778690835851" height="125.31778690835851" width="395.52"><g id="textblocktransform"><svg viewBox="0 0 395.52 125.31778690835851" height="125.31778690835851" width="395.52" id="textblock"><g><svg viewBox="0 0 395.52 125.31778690835851" height="125.31778690835851" width="395.52"><rect width="395.52" height="125.31778690835851" x="0" y="0" opacity="1" fill="#1c70ec" data-fill-palette-color="tertiary"></rect><g transform="matrix(1,0,0,1,23.607599999999998,23.607599999999998)"><svg width="348.3048" viewBox="2.2 -32.7 148.94 33.400000000000006" height="78.10258690835852" data-palette-color="#efe1c6"><path d="M3.85 0.5L3.85 0.5Q2.9 0.5 2.55-0.05 2.2-0.6 2.2-1.25L2.2-1.25Q2.2-4.35 2.83-8.35 3.45-12.35 4.35-16.3L4.35-16.3Q5.15-19.65 6.13-22.55 7.1-25.45 7.85-27.3L7.85-27.3Q8.95-29.9 10.38-31.28 11.8-32.65 13.7-32.65L13.7-32.65Q15.1-32.65 16.2-31.73 17.3-30.8 17.5-28.4L17.5-28.4Q17.8-25.5 18.2-22.55 18.6-19.6 19.1-17.18 19.6-14.75 20.15-13.45L20.15-13.45Q20.6-12.3 21.45-12.3L21.45-12.3Q22.4-12.3 23.1-13.5L23.1-13.5Q23.75-14.6 24.5-16.5 25.25-18.4 25.98-20.53 26.7-22.65 27.25-24.4L27.25-24.4Q27.9-26.3 28.73-28.23 29.55-30.15 30.85-31.43 32.15-32.7 34.1-32.7L34.1-32.7Q35.9-32.7 36.68-31.48 37.45-30.25 37.45-27.6L37.45-27.6Q37.45-25.55 37.3-23.3L37.3-23.3Q37.25-22 37.18-20.63 37.1-19.25 37.1-17.8L37.1-17.8Q37.1-15.55 37.33-13.05 37.55-10.55 38.23-8.35 38.9-6.15 40.25-4.65L40.25-4.65Q40.65-4.3 40.98-3.85 41.3-3.4 41.3-2.85L41.3-2.85Q41.3-1.6 39.98-0.58 38.65 0.45 36.95 0.45L36.95 0.45Q35.4 0.45 34.65-0.55 33.9-1.55 33.45-3.25L33.45-3.25Q32.95-5.35 32.75-7.75 32.55-10.15 32.55-12.4L32.55-12.4Q32.55-16 32.83-19.03 33.1-22.05 33.1-23.5L33.1-23.5Q33.1-24.3 32.95-24.68 32.8-25.05 32.2-25.05L32.2-25.05Q31.5-25.05 31.03-24.43 30.55-23.8 30.25-22.7L30.25-22.7Q29.6-20.6 28.8-18.2 28-15.8 27.13-13.5 26.25-11.2 25.25-9.4L25.25-9.4Q24.1-7.3 22.78-6.58 21.45-5.85 20.1-5.85L20.1-5.85Q18-5.85 16.93-7.18 15.85-8.5 15.35-10.1L15.35-10.1Q14.7-12.25 14.15-15.73 13.6-19.2 13.35-23.55L13.35-23.55Q13.25-25.4 12.15-25.4L12.15-25.4Q10.95-25.4 10.25-23.6L10.25-23.6Q9.65-21.8 9.1-19.38 8.55-16.95 8.22-14.33 7.9-11.7 7.9-9.15L7.9-9.15Q7.9-7 8.08-5.4 8.25-3.8 8.25-2.4L8.25-2.4Q8.25-1.4 7.48-0.75 6.7-0.1 5.65 0.2 4.6 0.5 3.85 0.5ZM52.5 0.65L52.5 0.65Q48.7 0.65 46.57-1.53 44.45-3.7 44.45-7.6L44.45-7.6Q44.45-11.15 46-14.05 47.55-16.95 50.17-18.68 52.8-20.4 55.95-20.4L55.95-20.4Q58.95-20.4 60.75-18.93 62.55-17.45 62.55-15L62.55-15Q62.55-13.05 61.35-11.4 60.15-9.75 58.15-8.78 56.15-7.8 53.7-7.8L53.7-7.8Q50.7-7.8 48.8-9.15L48.8-9.15Q48.85-6.85 50.37-5.45 51.9-4.05 54.3-4.05L54.3-4.05Q55.75-4.05 57.27-4.58 58.8-5.1 59.9-6L59.9-6Q60.6-6.6 61.2-6.6L61.2-6.6Q61.7-6.6 62.02-6.28 62.35-5.95 62.35-5.45L62.35-5.45Q62.35-4.35 60.45-2.55L60.45-2.55Q57.1 0.65 52.5 0.65ZM53.25-11.1L53.25-11.1Q55.05-11.1 56.25-11.85 57.45-12.6 57.45-13.75L57.45-13.75Q57.45-14.7 56.65-15.23 55.85-15.75 54.45-15.75L54.45-15.75Q52.6-15.75 51.22-14.78 49.85-13.8 49.25-12.05L49.25-12.05Q49.95-11.6 51.05-11.35 52.15-11.1 53.25-11.1ZM73.45 0.7L73.45 0.7Q72.09 0.7 71.12-0.13 70.15-0.95 69.95-3.2L69.95-3.2Q69.84-4.9 69.52-6.95 69.2-9 68.7-10.85 68.2-12.7 67.55-13.75L67.55-13.75Q67.2-14.3 66.77-14.58 66.34-14.85 65.5-14.95L65.5-14.95Q64.95-15 64.75-15.3 64.55-15.6 64.55-16.25L64.55-16.25Q64.55-18.3 65.67-19.28 66.8-20.25 68.25-20.25L68.25-20.25Q69.75-20.25 70.75-19.28 71.75-18.3 72.3-16.7 72.84-15.1 73.07-13.18 73.3-11.25 73.3-9.3L73.3-9.3Q73.3-8.5 73.27-7.63 73.25-6.75 73.25-6.15L73.25-6.15Q73.25-5.6 73.47-5.3 73.7-5 74.34-5L74.34-5Q75.15-5 76.2-5.48 77.25-5.95 78.27-6.85 79.3-7.75 79.97-8.97 80.65-10.2 80.65-11.7L80.65-11.7Q80.65-12.55 80.37-13.5 80.09-14.45 79.5-15.1L79.5-15.1Q78.9-15.75 78.62-16.13 78.34-16.5 78.34-17L78.34-17Q78.34-17.9 79.17-18.65 80-19.4 81.12-19.85 82.25-20.3 83.09-20.3L83.09-20.3Q84.55-20.3 84.95-19.1 85.34-17.9 85.34-16.45L85.34-16.45Q85.34-13.7 84.34-10.7 83.34-7.7 81.65-5.1 79.95-2.5 77.82-0.9 75.7 0.7 73.45 0.7ZM96.34 0.65L96.34 0.65Q92.54 0.65 90.42-1.53 88.29-3.7 88.29-7.6L88.29-7.6Q88.29-11.15 89.84-14.05 91.39-16.95 94.02-18.68 96.64-20.4 99.79-20.4L99.79-20.4Q102.79-20.4 104.59-18.93 106.39-17.45 106.39-15L106.39-15Q106.39-13.05 105.19-11.4 103.99-9.75 101.99-8.78 99.99-7.8 97.54-7.8L97.54-7.8Q94.54-7.8 92.64-9.15L92.64-9.15Q92.69-6.85 94.22-5.45 95.74-4.05 98.14-4.05L98.14-4.05Q99.59-4.05 101.12-4.58 102.64-5.1 103.74-6L103.74-6Q104.44-6.6 105.04-6.6L105.04-6.6Q105.54-6.6 105.87-6.28 106.19-5.95 106.19-5.45L106.19-5.45Q106.19-4.35 104.29-2.55L104.29-2.55Q100.94 0.65 96.34 0.65ZM97.09-11.1L97.09-11.1Q98.89-11.1 100.09-11.85 101.29-12.6 101.29-13.75L101.29-13.75Q101.29-14.7 100.49-15.23 99.69-15.75 98.29-15.75L98.29-15.75Q96.44-15.75 95.07-14.78 93.69-13.8 93.09-12.05L93.09-12.05Q93.79-11.6 94.89-11.35 95.99-11.1 97.09-11.1ZM113.04 0.55L113.04 0.55Q111.24 0.55 111.44-0.65L111.44-0.65Q111.99-2.8 112.37-5.03 112.74-7.25 112.74-9.3L112.74-9.3Q112.74-11.95 112.42-13.18 112.09-14.4 111.54-14.88 110.99-15.35 110.19-15.6L110.19-15.6Q109.84-15.75 109.56-16 109.29-16.25 109.29-16.7L109.29-16.7Q109.29-17.4 109.84-18.25 110.39-19.1 111.42-19.73 112.44-20.35 113.74-20.35L113.74-20.35Q115.44-20.35 116.09-19.18 116.74-18 116.74-16.1L116.74-16.1Q116.74-14.85 116.49-13.3 116.24-11.75 115.99-10.5L115.99-10.5 116.14-10.45Q117.14-13.1 118.56-15.38 119.99-17.65 121.89-19.05 123.79-20.45 126.29-20.45L126.29-20.45Q128.94-20.45 130.34-18.85 131.74-17.25 131.74-14.85L131.74-14.85Q131.74-13.85 131.52-12.95 131.29-12.05 131.04-11.2L131.04-11.2Q130.79-10.4 130.62-9.55 130.44-8.7 130.44-7.85L130.44-7.85Q130.44-5 133.14-4L133.14-4Q133.84-3.7 133.84-3.1L133.84-3.1Q133.84-2.65 133.54-1.8 133.24-0.95 132.44-0.23 131.64 0.5 130.09 0.5L130.09 0.5Q128.09 0.5 126.99-0.93 125.89-2.35 125.89-4.55L125.89-4.55Q125.89-5.8 126.17-7.08 126.44-8.35 126.74-9.45L126.74-9.45Q126.94-10.3 127.12-11.13 127.29-11.95 127.29-12.6L127.29-12.6Q127.29-14.9 124.89-14.9L124.89-14.9Q122.84-14.9 121.29-13.38 119.74-11.85 118.64-9.55 117.54-7.25 116.84-4.9L116.84-4.9 116.84-3.7Q116.84-1.85 115.81-0.65 114.79 0.55 113.04 0.55ZM144.34 0.65L144.34 0.65Q141.29 0.65 139.96-1.38 138.64-3.4 138.64-6.6L138.64-6.6Q138.64-7.75 138.76-8.85 138.89-9.95 139.04-11.05L139.04-11.05Q139.19-12.15 139.34-13.2 139.49-14.25 139.59-15.2L139.59-15.2Q138.54-14.9 137.49-14.9L137.49-14.9Q136.39-14.9 136.39-15.8L136.39-15.8Q136.39-16.75 137.24-18.13 138.09-19.5 139.36-20.85 140.64-22.2 141.91-23.13 143.19-24.05 144.09-24.05L144.09-24.05Q145.19-24.05 145.19-22.15L145.19-22.15Q145.19-21.65 145.11-21.13 145.04-20.6 144.94-20.05L144.94-20.05Q145.89-20.25 146.86-20.4 147.84-20.55 148.74-20.55L148.74-20.55Q149.89-20.55 150.51-20.15 151.14-19.75 151.14-18.6L151.14-18.6Q151.14-17.4 150.56-16.2 149.99-15 149.29-15L149.29-15Q149.14-15 148.79-15.05 148.44-15.1 147.94-15.2L147.94-15.2Q147.29-15.35 146.29-15.5 145.29-15.65 143.89-15.65L143.89-15.65Q143.54-14.1 143.26-12.48 142.99-10.85 142.99-9.55L142.99-9.55Q142.99-6.65 144.44-5.6 145.89-4.55 148.64-4.55L148.64-4.55Q149.49-4.55 149.84-4.28 150.19-4 150.19-3.3L150.19-3.3Q150.19-1.65 148.49-0.5 146.79 0.65 144.34 0.65Z" opacity="1" transform="matrix(1,0,0,1,0,0)" fill="#efe1c6" class="wordmark-text-0" data-fill-palette-color="quaternary" id="text-0"></path></svg></g></svg></g></svg></g></svg></g></svg></g><defs></defs></svg><rect width="395.52" height="125.31778690835851" fill="none" stroke="none" visibility="hidden"></rect></g></svg></g></svg>